<svg width="12" height="12" viewBox="0 0 12 12" fill="none" xmlns="http://www.w3.org/2000/svg">
<path d="M10.6667 5.33332H6.66669V1.33332C6.66669 1.15651 6.59645 0.986943 6.47142 0.861919C6.3464 0.736895 6.17683 0.666656 6.00002 0.666656C5.82321 0.666656 5.65364 0.736895 5.52862 0.861919C5.40359 0.986943 5.33335 1.15651 5.33335 1.33332V5.33332H1.33335C1.15654 5.33332 0.986974 5.40356 0.861949 5.52858C0.736925 5.65361 0.666687 5.82318 0.666687 5.99999C0.666687 6.1768 0.736925 6.34637 0.861949 6.47139C0.986974 6.59642 1.15654 6.66666 1.33335 6.66666H5.33335V10.6667C5.33335 10.8435 5.40359 11.013 5.52862 11.1381C5.65364 11.2631 5.82321 11.3333 6.00002 11.3333C6.17683 11.3333 6.3464 11.2631 6.47142 11.1381C6.59645 11.013 6.66669 10.8435 6.66669 10.6667V6.66666H10.6667C10.8435 6.66666 11.0131 6.59642 11.1381 6.47139C11.2631 6.34637 11.3334 6.1768 11.3334 5.99999C11.3334 5.82318 11.2631 5.65361 11.1381 5.52858C11.0131 5.40356 10.8435 5.33332 10.6667 5.33332Z" fill="#54634B"/>
</svg>
