<svg width="6" height="10" viewBox="0 0 6 10" fill="none" xmlns="http://www.w3.org/2000/svg">
<path d="M2.40831 4.99998L5.35831 2.04998C5.51352 1.89384 5.60063 1.68263 5.60063 1.46248C5.60063 1.24232 5.51352 1.03111 5.35831 0.874978C5.28084 0.796871 5.18867 0.734875 5.08712 0.692568C4.98557 0.650261 4.87665 0.628479 4.76664 0.628479C4.65663 0.628479 4.54771 0.650261 4.44616 0.692568C4.34461 0.734875 4.25244 0.796871 4.17497 0.874978L0.64164 4.40831C0.563533 4.48578 0.501538 4.57795 0.459231 4.6795C0.416924 4.78105 0.395142 4.88997 0.395142 4.99998C0.395142 5.10999 0.416924 5.21891 0.459231 5.32046C0.501538 5.42201 0.563533 5.51417 0.64164 5.59164L4.17497 9.16664C4.25284 9.24388 4.34519 9.30498 4.44672 9.34645C4.54825 9.38792 4.65697 9.40895 4.76664 9.40831C4.87631 9.40895 4.98503 9.38792 5.08656 9.34645C5.18809 9.30498 5.28044 9.24388 5.35831 9.16664C5.51352 9.01051 5.60063 8.7993 5.60063 8.57914C5.60063 8.35899 5.51352 8.14778 5.35831 7.99164L2.40831 4.99998Z" fill="#54634B"/>
</svg>
